<svg xmlns="http://www.w3.org/2000/svg" width="700" height="700" viewBox="-170 28 700 700">
    <path fill="#00aaff" d="M393.831 203.468l46.231 18.492-44.21 17.684V221.96c0-6.637-.712-12.851-2.02-18.492z" />
    <path fill="#ffc040" d="M396.116 300.499c10.469 3.292 18.063 13.086 18.063 24.655 0 14.27-11.553 25.838-25.805 25.838s-25.805-11.568-25.805-25.838c0-11.569 7.594-21.362 18.063-24.655v-78.695c0-13.361-2.515-21.835-7.43-28.72-4.773-6.687-10.527-10.211-19.18-12.633-17.868-5.002-41.498-1.657-66.815 5.445-50.751 14.237-101.561 42.732-101.561 42.732a7.74 7.74 0 0 1-10.537-2.975 7.76 7.76 0 0 1 2.972-10.55s52.445-29.405 104.949-44.134c26.311-7.381 54.308-11.285 75.16-5.448 10.707 2.997 21.087 9.415 27.607 18.548 6.379 8.935 10.317 22.161 10.317 37.735v78.695z" />
    <path fill="#00aaff" d="M330.563 177.999l44.347 17.739c3.802 6.458 5.741 14.458 5.741 26.222v23.926l-200.247 80.099L-79.657 221.96l260.061-104.024 120.717 48.287z" />
    <path fill="#a6a699" d="M75.976 299.978c0-57.451 46.573-104.024 104.024-104.024s104.024 46.573 104.024 104.024S237.451 404.002 180 404.002 75.976 357.429 75.976 299.978z" />
    <path fill="#006699" d="M270.108 273.972c-17.986-15.546-51.604-26.006-90.108-26.006s-72.121 10.46-90.108 26.006c-8.851 7.65-13.917 16.532-13.917 26.006v-52.012c0-28.726 46.573-52.012 104.024-52.012s104.024 23.287 104.024 52.012v52.012c0-4.927-1.37-9.695-3.931-14.212-2.363-4.168-5.738-8.123-9.986-11.794z" />
    <path fill="#ffc040" d="M-21.107 465c-23.34 0-47.485 10.249-47.485 33.699 0 20.845 18.914 27.62 39.034 35.089C-11.852 540.389.824 545.774.824 557.413c0 10.422-10.463 18.587-28.572 18.587-17.706 0-25.553-7.643-25.553-24.493-15.091 0-21.328 6.775-21.328 15.113 0 16.155 22.938 22.582 43.461 22.582 32.998 0 52.918-16.329 52.918-39.432 0-18.066-12.072-25.188-37.223-34.742-17.505-6.775-32.193-10.77-32.193-22.235 0-9.033 9.054-14.591 22.133-14.591 15.493 0 22.334 7.817 22.334 22.061 11.066 1.39 18.712-4.169 18.712-14.07 0-15.807-19.718-21.192-36.62-21.192zm96.58 13.549h.402l12.072-.347c16.7-.521 25.553 7.643 25.553 21.54 0 15.286-10.463 23.972-33.602 23.972-1.408 0-2.817 0-4.427-.174zM43.48 467.606c-5.634 0-8.048 5.732-7.847 10.944l14.688 1.042v95.018l-5.835.347c-9.859.521-8.652 9.901-8.853 11.638H83.32c10.06 0 9.256-9.554 9.054-11.291l-16.901-1.042v-39.779h8.048c9.256 22.408 31.388 54.718 51.107 54.718 10.865 0 18.511-6.775 19.718-15.286-16.298 0-34.608-15.286-49.9-41.169 23.34-4.516 35.211-17.197 35.211-34.22 0-20.324-16.499-30.92-49.9-30.92zm272.838 106.657l-8.25-94.323 14.085-1.042c.201-1.737 1.006-11.291-9.054-11.291h-36.821l-30.986 69.136-35.413-69.136h-34.407c-10.06 0-9.256 9.554-9.054 11.291l13.883 1.042-7.243 94.671-8.048.347c-9.859.521-8.652 9.901-8.853 11.638h41.046c10.06 0 9.256-9.554 9.054-11.291l-16.298-1.042 5.835-80.601 38.833 75.042c4.024.695 8.853.174 12.877-.869l36.016-77.474 7.243 84.248-5.634.347c-9.859.521-8.652 9.901-8.853 11.638h45.674c10.06 0 9.256-9.554 9.054-11.291zM391.771 465c-23.34 0-47.485 10.249-47.485 33.699 0 20.845 18.914 27.62 39.034 35.089 17.706 6.601 30.382 11.986 30.382 23.624 0 10.422-10.463 18.587-28.572 18.587-17.706 0-25.553-7.643-25.553-24.493-15.091 0-21.328 6.775-21.328 15.113 0 16.155 22.938 22.582 43.461 22.582 32.998 0 52.918-16.329 52.918-39.432 0-18.066-12.072-25.188-37.223-34.742-17.505-6.775-32.193-10.77-32.193-22.235 0-9.033 9.054-14.591 22.133-14.591 15.493 0 22.334 7.817 22.334 22.061 11.066 1.39 18.712-4.169 18.712-14.07 0-15.807-19.718-21.192-36.62-21.192z" />
</svg>